<?xml version="1.0" encoding="utf-8"?>
<!-- Generator: Adobe Illustrator 23.0.3, SVG Export Plug-In . SVG Version: 6.00 Build 0)  -->
<svg version="1.1" id="Capa_1" focusable="false" xmlns="http://www.w3.org/2000/svg" xmlns:xlink="http://www.w3.org/1999/xlink"
	 x="0px" y="0px" viewBox="0 0 1023.4 991" style="enable-background:new 0 0 1023.4 991;" xml:space="preserve">
<style type="text/css">
	.st0{fill:#696466;}
	.st1{fill:#FAB941;}
</style>
<path class="st0" d="M857.9,5.3H165.2C105,5.3,55.7,54.7,55.7,114.9v762.2c0,60.3,49.3,109.6,109.6,109.6h692.7
	c60.3,0,109.6-49.3,109.6-109.6V114.9C967.5,54.7,918.2,5.3,857.9,5.3z"/>
<path class="st1" d="M520.7,796.3c-65,0-113.9-22.2-146.7-66.6c-29.8-39.9-44.8-92.3-44.8-157c0-40.3,5.8-81.6,17.4-123.6
	c11.7-42,27.9-81.1,49.1-117.3c21.2-36.2,46-66.5,74.5-90.7c28.6-24.3,59.9-39.4,94.3-45.4c5.4-0.9,10.8-1.4,16.2-1.4
	c15.4,0,28.3,2.6,38.6,7.7c6.3,3.2,12.4,6.7,18.3,10.5c5.9,3.9,11,9,15.6,15.1c3.6,5.5,6.9,11.1,10,16.7l3.4,6.2
	c5.2,9.5,8.8,19.5,10.8,30.1c2,10.5,3.2,25,3.9,43.1c0,13.2-1.4,26.5-3.9,39.9l-1.2,8.4c-1.4,9.5-3.2,18.8-5.6,28
	c-2.7,8.3-8,14.6-15.6,18.8c-5.4,3.2-11.2,4.7-17.1,4.7c-10.8,0-19-3.9-24.2-11.4c-3.4-4.6-5.1-9.8-5.1-15.6l0.2-3.7
	c2.2-16.4,3.6-33.2,3.9-50.5c0-12.5-0.8-24.4-2.5-35.9c-1.7-11.4-4.6-22.5-8.6-33.4c-2.2-5.5-5.8-10-10.7-13.7
	c-4.9-3.7-10-5.6-15.2-5.6c-8,0.7-16.1,4.2-24.2,10.5l-1,0.9c-14.6,10.4-27.2,22.7-37.9,36.9c-16.8,22-32.5,50.1-47,84
	c-1,2.6-2.2,5.3-3.4,7.7c-5.2,11.6-9.5,23.7-12.7,36.2c-1,4-2.4,8.1-3.9,12c-1.7,4-3,8.1-4.2,12.3c-5.6,26.9-9.1,45-10.5,54
	c-1.9,16.2-2.9,36.7-2.9,61.5c0,16.2,2.2,35,6.6,56.6c2.2,16.4,6.8,32.2,13.7,47.6c9.3,18.5,22,33.4,38.1,45
	c15.4,10.7,32.3,16.4,50.6,16.7l4.9,0.2c11,0,21-3.3,30-10c19-14.1,33.3-32.9,43.2-56.3c4.6-12.1,6.9-22.3,6.9-30.4c0-3-0.3-6-0.7-9
	c0-6.9,2.2-13.2,6.9-19c6.9-8.1,14.9-13.7,23.7-16.7c3.7-1.4,7.6-2.1,11.5-2.1c4.2,0,8.5,1.2,12.5,3.7l3,1.8
	c10.3,5.5,15.6,13.7,15.6,24.6v2.1c-3.4,34.1-11.7,62.4-24.9,84.7c-4.2,8.4-9.8,16.4-16.8,23.7c-3.4,3.5-6.8,7.2-10,10.9l-8.5,9.5
	c-11.7,12.1-27.2,22.7-46.5,31.6c-12.9,5.6-26.4,8.8-40.4,9.5C538.3,795.8,529.3,796.3,520.7,796.3z"/>
</svg>
