<?xml version="1.0" encoding="utf-8"?>
<!-- Generator: Adobe Illustrator 23.0.3, SVG Export Plug-In . SVG Version: 6.00 Build 0)  -->
<svg version="1.1" id="Capa_1" xmlns="http://www.w3.org/2000/svg" xmlns:xlink="http://www.w3.org/1999/xlink" x="0px" y="0px"
	 viewBox="0 0 280 172" style="enable-background:new 0 0 280 172;" xml:space="preserve">
<style type="text/css">
	.st0{opacity:0.35;}
	.st1{fill:#FFFFFF;}
</style>
<g class="st0">
	<g>
		<path class="st1" d="M23.72,94.92c-3.84,0-6.73-1.26-8.67-3.79c-1.76-2.27-2.65-5.25-2.65-8.93c0-2.29,0.34-4.64,1.03-7.03
			s1.65-4.61,2.9-6.67s2.72-3.78,4.4-5.16c1.69-1.38,3.54-2.24,5.57-2.58c0.32-0.05,0.64-0.08,0.96-0.08c0.91,0,1.67,0.15,2.28,0.44
			c0.37,0.18,0.73,0.38,1.08,0.6c0.35,0.22,0.65,0.51,0.92,0.86c0.21,0.31,0.41,0.63,0.59,0.95l0.2,0.35
			c0.31,0.54,0.52,1.11,0.64,1.71c0.12,0.6,0.19,1.42,0.23,2.45c0,0.75-0.08,1.51-0.23,2.27l-0.07,0.48
			c-0.08,0.54-0.19,1.07-0.33,1.59c-0.16,0.47-0.47,0.83-0.92,1.07c-0.32,0.18-0.66,0.27-1.01,0.27c-0.64,0-1.12-0.22-1.43-0.65
			c-0.2-0.26-0.3-0.56-0.3-0.89l0.01-0.21c0.13-0.93,0.21-1.89,0.23-2.87c0-0.71-0.05-1.39-0.15-2.04c-0.1-0.65-0.27-1.28-0.51-1.9
			c-0.13-0.31-0.34-0.57-0.63-0.78c-0.29-0.21-0.59-0.32-0.9-0.32c-0.47,0.04-0.95,0.24-1.43,0.6l-0.06,0.05
			c-0.86,0.59-1.61,1.29-2.24,2.1c-0.99,1.25-1.92,2.85-2.78,4.78c-0.06,0.15-0.13,0.3-0.2,0.44c-0.31,0.66-0.56,1.35-0.75,2.06
			c-0.06,0.23-0.14,0.46-0.23,0.68c-0.1,0.23-0.18,0.46-0.25,0.7c-0.33,1.53-0.54,2.56-0.62,3.07c-0.11,0.92-0.17,2.09-0.17,3.5
			c0,0.92,0.13,1.99,0.39,3.22c0.13,0.93,0.4,1.83,0.81,2.71c0.55,1.05,1.3,1.9,2.25,2.56c0.91,0.61,1.91,0.93,2.99,0.95l0.29,0.01
			c0.65,0,1.24-0.19,1.77-0.57c1.12-0.8,1.97-1.87,2.55-3.2c0.27-0.69,0.41-1.27,0.41-1.73c0-0.17-0.02-0.34-0.04-0.51
			c0-0.39,0.13-0.75,0.41-1.08c0.41-0.46,0.88-0.78,1.4-0.95c0.22-0.08,0.45-0.12,0.68-0.12c0.25,0,0.5,0.07,0.74,0.21l0.18,0.1
			c0.61,0.31,0.92,0.78,0.92,1.4v0.12c-0.2,1.94-0.69,3.55-1.47,4.82c-0.25,0.48-0.58,0.93-0.99,1.35c-0.2,0.2-0.4,0.41-0.59,0.62
			l-0.5,0.54c-0.69,0.69-1.61,1.29-2.75,1.8c-0.76,0.32-1.56,0.5-2.39,0.54C24.76,94.89,24.23,94.92,23.72,94.92z"/>
		<path class="st1" d="M63.99,94.93c-0.68,0-1.24-0.2-1.68-0.59c-0.76-0.68-1.32-1.85-1.67-3.52c-0.15-0.71-0.27-1.4-0.36-2.07
			c-0.14-0.9-0.33-1.88-0.57-2.93l-0.24-1.1c-0.17-1.03-0.32-1.57-0.44-1.62c-1.12-0.26-2.19-0.39-3.2-0.39
			c-0.72,0-1.46,0.03-2.2,0.09c-0.75,0.06-1.57,0.1-2.46,0.12c-0.15,0-0.25,0.04-0.31,0.12c-0.05,0.08-0.09,0.18-0.11,0.29
			l-0.03,0.09c-0.11,0.34-0.22,0.69-0.32,1.04l-0.21,0.69c-0.17,0.58-0.34,1.19-0.5,1.82c-0.28,1.08-0.58,2.08-0.89,3.01
			c-0.59,1.85-1.14,3.11-1.65,3.76s-1.34,1.01-2.5,1.08l-0.27,0.02c-0.47,0-0.84-0.12-1.11-0.37s-0.46-0.57-0.58-0.98
			c-0.12-0.41-0.17-0.86-0.17-1.34c0.02-0.57,0.15-1.4,0.38-2.48c0.33-1.57,0.77-3.19,1.31-4.84c0.2-0.6,0.39-1.2,0.57-1.8
			l0.41-1.31l0.27-0.86c0.25-0.78,0.51-1.56,0.78-2.33l0.41-1.22c0.37-1.11,0.68-1.96,0.93-2.56c0.13-0.32,0.25-0.64,0.36-0.96
			c0.5-1.56,1.16-3.32,1.98-5.28s1.58-3.69,2.28-5.21c0.25-0.57,0.54-1.08,0.86-1.54c0.33-0.46,0.72-0.82,1.18-1.1
			s1.02-0.41,1.68-0.41l0.69,0.01c0.96,0,1.6,0.25,1.92,0.76s0.64,1.42,0.96,2.74l0.47,1.65c0.2,0.68,1.11,4.04,2.72,10.09
			l2.43,9.18c0.5,2.13,0.83,3.76,0.98,4.88l0.12,0.74c0.08,0.39,0.14,0.79,0.18,1.19l0.03,0.29c0.05,0.28,0.08,0.56,0.08,0.84
			c0,0.17-0.01,0.34-0.04,0.51c-0.06,0.33-0.15,0.6-0.26,0.81c-0.11,0.21-0.29,0.39-0.56,0.54c-0.4,0.24-0.83,0.39-1.29,0.44
			L63.99,94.93z M57.26,77.98c0.12,0,0.18-0.05,0.18-0.15l-0.02-0.17c-0.25-1.74-0.62-3.37-1.11-4.87l-0.42-1.37
			c-0.12-0.35-0.23-0.71-0.33-1.07c-0.42,0.7-0.82,1.64-1.2,2.81s-0.72,2.28-1.01,3.32l-0.3,1.05c-0.03,0.07-0.04,0.13-0.04,0.17
			c0,0.08,0.07,0.12,0.21,0.12c1.33,0,2.65,0.05,3.94,0.15h0.1V77.98z"/>
		<path class="st1" d="M84.01,94.86c-1.01,0-2.06-0.16-3.16-0.47c-0.1-0.02-0.2-0.03-0.29-0.03s-0.19,0.01-0.29,0.03
			c-0.3,0.08-0.61,0.12-0.92,0.12c-0.21,0-0.42-0.02-0.63-0.07c-0.62-0.13-1.1-0.33-1.44-0.59c-0.34-0.27-0.57-0.77-0.69-1.51
			c-0.3-3.01-0.45-7.07-0.45-12.2c0-4.36,0.11-9.77,0.33-16.23v-0.38c0-0.49,0.06-0.97,0.2-1.44c0.17-0.43,0.47-0.78,0.9-1.05
			c0.75-0.5,1.58-0.76,2.48-0.78c0.44,0,0.8,0.02,1.07,0.06c0.67,0.1,1.17,0.4,1.5,0.89c0.06,0.11,0.13,0.17,0.2,0.17
			c0.05,0,0.11-0.01,0.18-0.04c0.48-0.23,0.97-0.44,1.46-0.63c0.88-0.3,1.88-0.45,3.01-0.45c1.59,0,3.01,0.5,4.25,1.5
			c1.42,1.18,2.24,2.62,2.45,4.3l0.03,0.23c0.04,0.27,0.06,0.51,0.06,0.72l-0.01,0.17c0,1.34-0.18,2.53-0.53,3.55
			c-0.32,0.95-0.71,1.84-1.17,2.68c-0.56,0.96-1.22,1.86-1.97,2.69l-0.13,0.15c-0.37,0.45-0.8,0.85-1.28,1.2
			c-0.14,0.09-0.21,0.18-0.21,0.26s0.06,0.17,0.18,0.26c0.75,0.62,1.33,1.37,1.74,2.25c0.61,1.22,0.92,2.56,0.92,4.01
			c0,1.04-0.15,2.27-0.45,3.68c-0.22,1.05-0.6,2.04-1.13,2.96c-0.49,0.9-1.14,1.72-1.94,2.46C87.08,94.34,85.66,94.86,84.01,94.86z
			 M83.51,75.88c1.15-0.1,2.03-0.37,2.64-0.82s1.22-1.07,1.86-1.89l0.26-0.3c1.43-1.72,2.15-3.45,2.15-5.19
			c0-1.11-0.31-2.03-0.92-2.77s-1.41-1.1-2.4-1.1c-1.13,0-2.33,0.51-3.59,1.52c-0.74,0.3-1.14,2.62-1.19,6.94l-0.03,1.35
			c0,0.87,0.13,1.5,0.39,1.88C82.83,75.76,83.11,75.88,83.51,75.88z M83.95,91.06c0.38,0,0.78-0.1,1.19-0.29
			c0.79-0.37,1.42-1.05,1.88-2.04c0.68-1.5,1.02-2.92,1.02-4.24c0-1.87-0.75-3.33-2.24-4.37c-0.36-0.23-0.97-0.35-1.82-0.35
			c-0.4,0-0.76,0.03-1.08,0.09s-0.48,0.13-0.48,0.21c0.02,0.05,0.08,1.93,0.17,5.65c0.06,2.59,0.11,4.03,0.15,4.34
			C82.84,90.73,83.25,91.06,83.95,91.06z"/>
		<path class="st1" d="M107.67,94.8h-0.29c-0.98,0-1.67-0.22-2.06-0.65s-0.65-1.15-0.78-2.16c-0.17-2.23-0.26-4.87-0.26-7.91
			c0-3.02,0.05-6.19,0.17-9.51c0.11-3.33,0.22-6.42,0.33-9.27c0.01-0.23,0.02-0.46,0.03-0.68c0.05-0.61,0.31-1.16,0.77-1.65
			c0.47-0.49,1.04-0.87,1.71-1.16c0.68-0.29,1.33-0.44,1.96-0.44c0.45,0,0.86,0.09,1.22,0.27s0.62,0.47,0.77,0.87
			c0.03,0.1,0.04,0.2,0.04,0.3l-0.01,0.21c-0.22,1.4-0.38,3.67-0.49,6.79s-0.18,6.4-0.21,9.83c-0.04,3.43-0.06,6.32-0.07,8.65
			c-0.01,2.07-0.02,3.18-0.03,3.31c-0.06,0.39-0.1,0.75-0.11,1.08c-0.01,0.42-0.07,0.78-0.17,1.09s-0.34,0.55-0.71,0.72
			S108.51,94.77,107.67,94.8z"/>
		<path class="st1" d="M126.83,94.99c-0.67,0-1.29-0.21-1.87-0.64s-0.98-1-1.22-1.72c-0.71-2.33-1.07-5.53-1.07-9.59
			c0-2.68,0.17-6.36,0.51-11.05c0.2-2.79,0.33-5.29,0.39-7.52c0.03-0.61,0.28-1.13,0.74-1.56s1.05-0.76,1.77-0.98
			c0.71-0.23,1.42-0.34,2.13-0.34c0.75,0,1.42,0.13,2,0.39s0.95,0.67,1.1,1.23c0.18,0.73,0.7,2.39,1.55,4.96
			c0.85,2.58,1.75,5.15,2.7,7.73c0.95,2.58,1.66,4.24,2.13,4.99c0.04-0.13,0.06-0.26,0.06-0.38c0-0.09-0.01-0.18-0.02-0.26
			s-0.01-0.17-0.01-0.26l0.03-1.34c0.03-1.46,0.08-3.36,0.15-5.68c0.07-2.32,0.17-4.48,0.32-6.46c0.14-1.98,0.34-3.18,0.59-3.6
			c0.38-0.47,0.98-0.91,1.8-1.33c0.82-0.42,1.61-0.62,2.38-0.62c0.55,0,1.01,0.16,1.38,0.48c0.36,0.36,0.54,0.79,0.54,1.28
			c0,0.3-0.04,0.61-0.12,0.93c-0.1,0.47-0.27,2.49-0.5,6.06c-0.42,6.66-0.63,12.01-0.63,16.04c0,3.19,0.17,4.95,0.5,5.31l0.02,0.23
			c0,0.51-0.2,1.03-0.59,1.57s-0.9,0.98-1.52,1.35s-1.27,0.54-1.95,0.54c-1.21,0-2.21-0.63-2.99-1.88c-1.5-2.52-2.95-5.39-4.35-8.59
			c-1.4-3.2-2.65-6.19-3.75-8.98l-0.14-0.2c-0.1,1.6-0.15,3.62-0.15,6.06c0,4.84,0.26,7.98,0.78,9.41c0.19,0.6,0.29,1.06,0.29,1.37
			c0,0.39-0.12,0.83-0.35,1.31c-0.32,0.6-0.71,1.04-1.18,1.32C127.8,94.85,127.32,94.99,126.83,94.99z"/>
		<path class="st1" d="M174.91,94.93c-0.68,0-1.24-0.2-1.68-0.59c-0.76-0.68-1.32-1.85-1.67-3.52c-0.15-0.71-0.27-1.4-0.36-2.07
			c-0.14-0.9-0.33-1.88-0.57-2.93l-0.24-1.1c-0.17-1.03-0.32-1.57-0.44-1.62c-1.12-0.26-2.19-0.39-3.2-0.39
			c-0.72,0-1.46,0.03-2.2,0.09c-0.75,0.06-1.57,0.1-2.46,0.12c-0.15,0-0.25,0.04-0.31,0.12s-0.09,0.18-0.11,0.29l-0.03,0.09
			c-0.11,0.34-0.21,0.69-0.32,1.04l-0.21,0.69c-0.17,0.58-0.34,1.19-0.5,1.82c-0.28,1.08-0.58,2.08-0.89,3.01
			c-0.59,1.85-1.14,3.11-1.65,3.76s-1.34,1.01-2.5,1.08l-0.27,0.02c-0.47,0-0.84-0.12-1.11-0.37s-0.46-0.57-0.58-0.98
			c-0.11-0.41-0.17-0.86-0.17-1.34c0.02-0.57,0.15-1.4,0.38-2.48c0.33-1.57,0.77-3.19,1.31-4.84c0.2-0.6,0.39-1.2,0.57-1.8
			l0.41-1.31l0.27-0.86c0.25-0.78,0.51-1.56,0.78-2.33l0.41-1.22c0.37-1.11,0.68-1.96,0.93-2.56c0.13-0.32,0.25-0.64,0.36-0.96
			c0.5-1.56,1.16-3.32,1.98-5.28s1.58-3.69,2.28-5.21c0.25-0.57,0.54-1.08,0.86-1.54c0.33-0.46,0.72-0.82,1.18-1.1
			c0.46-0.28,1.02-0.41,1.68-0.41l0.69,0.01c0.96,0,1.6,0.25,1.92,0.76c0.32,0.51,0.64,1.42,0.96,2.74l0.47,1.65
			c0.2,0.68,1.11,4.04,2.72,10.09l2.44,9.18c0.5,2.13,0.83,3.76,0.98,4.88l0.12,0.74c0.08,0.39,0.14,0.79,0.18,1.19l0.03,0.29
			c0.05,0.28,0.08,0.56,0.08,0.84c0,0.17-0.02,0.34-0.05,0.51c-0.06,0.33-0.14,0.6-0.25,0.81s-0.3,0.39-0.56,0.54
			c-0.4,0.24-0.83,0.39-1.29,0.44L174.91,94.93z M168.18,77.98c0.12,0,0.18-0.05,0.18-0.15l-0.01-0.17
			c-0.25-1.74-0.62-3.37-1.11-4.87l-0.42-1.37c-0.12-0.35-0.23-0.71-0.33-1.07c-0.42,0.7-0.82,1.64-1.2,2.81s-0.72,2.28-1.01,3.32
			l-0.3,1.05c-0.03,0.07-0.04,0.13-0.04,0.17c0,0.08,0.07,0.12,0.21,0.12c1.33,0,2.65,0.05,3.94,0.15h0.09V77.98z"/>
		<path class="st1" d="M195.44,95.36c-1.23,0-2.41-0.21-3.55-0.62c-2.47-0.87-4.12-2.67-4.94-5.4c-0.16-0.5-0.24-0.94-0.24-1.31
			c0-0.17,0.02-0.34,0.05-0.51c0.18-0.9,0.66-1.59,1.43-2.07c0.47-0.27,0.93-0.41,1.38-0.41c0.52,0,1.03,0.14,1.53,0.41
			c0.6,0.27,0.97,0.75,1.11,1.44v0.05c0.04,0.17,0.06,0.34,0.06,0.5l-0.04,0.51c0,0.49,0.19,0.92,0.58,1.29s0.88,0.66,1.47,0.86
			c0.6,0.21,1.22,0.31,1.89,0.31c0.8,0,1.56-0.18,2.27-0.54s1.21-0.94,1.5-1.74c0.02-0.07,0.03-0.14,0.03-0.21
			c0-0.69-1-1.65-3.01-2.89l-1.14-0.72c-1.23-0.74-2.36-1.48-3.38-2.2c-1.02-0.73-1.91-1.53-2.65-2.41
			c-0.75-0.88-1.33-1.93-1.74-3.13s-0.62-2.68-0.62-4.41c0-2.17,0.69-4.21,2.07-6.12c1.31-1.8,2.92-3.15,4.83-4.04
			c1.2-0.51,2.49-0.81,3.86-0.89c1.47,0,2.77,0.39,3.88,1.17s1.87,1.82,2.27,3.13c0.24,0.72,0.36,1.78,0.36,3.17
			c0,1.72-0.28,2.82-0.83,3.28c-0.43,0.32-0.97,0.48-1.61,0.48c-0.55-0.02-1.06-0.2-1.53-0.53c-0.81-0.56-1.22-1.35-1.22-2.38
			l0.04-1.13c0-1.44-0.36-2.16-1.07-2.16c-0.39,0-0.92,0.24-1.59,0.71c-0.46,0.34-0.9,0.78-1.31,1.31s-0.75,1.14-1.01,1.83
			s-0.4,1.43-0.4,2.21c0,2.7,1.71,5.1,5.14,7.2c1.34,0.75,2.63,1.59,3.86,2.51c1.9,1.86,2.86,3.74,2.86,5.64
			c0,1.11-0.31,2.14-0.92,3.1c-0.61,0.95-1.43,1.78-2.44,2.49s-2.15,1.25-3.41,1.65C198.01,95.16,196.73,95.36,195.44,95.36z"/>
	</g>
	<g>
		<path class="st1" d="M46.23,161.9c-1.14,0-2.07-0.33-2.8-0.98c-1.27-1.13-2.2-3.09-2.78-5.86c-0.25-1.19-0.45-2.34-0.6-3.45
			c-0.23-1.5-0.55-3.13-0.95-4.88l-0.4-1.83c-0.28-1.72-0.53-2.62-0.73-2.7c-1.87-0.43-3.65-0.65-5.33-0.65
			c-1.2,0-2.42,0.05-3.67,0.15c-1.24,0.1-2.61,0.17-4.09,0.2c-0.25,0-0.42,0.07-0.51,0.2s-0.15,0.29-0.19,0.48l-0.05,0.15
			c-0.18,0.57-0.36,1.14-0.53,1.73l-0.35,1.15c-0.28,0.97-0.56,1.98-0.83,3.03c-0.47,1.8-0.96,3.47-1.48,5.01
			c-0.98,3.09-1.9,5.17-2.74,6.26s-2.23,1.69-4.17,1.8l-0.45,0.02c-0.79,0-1.4-0.2-1.85-0.61c-0.45-0.41-0.77-0.96-0.96-1.64
			c-0.19-0.68-0.29-1.43-0.29-2.23c0.03-0.95,0.24-2.33,0.63-4.13c0.55-2.62,1.28-5.31,2.18-8.06c0.33-1,0.65-2,0.95-3l0.68-2.18
			l0.45-1.43c0.42-1.3,0.85-2.59,1.3-3.88l0.68-2.03c0.62-1.85,1.13-3.27,1.55-4.26c0.22-0.53,0.42-1.07,0.6-1.6
			c0.83-2.6,1.93-5.54,3.29-8.8s2.62-6.15,3.79-8.67c0.42-0.95,0.9-1.81,1.44-2.57s1.2-1.37,1.97-1.83c0.77-0.46,1.7-0.69,2.8-0.69
			l1.15,0.03c1.6,0,2.67,0.42,3.2,1.26c0.53,0.84,1.07,2.37,1.6,4.57l0.78,2.75c0.33,1.14,1.84,6.73,4.53,16.8l4.06,15.29
			c0.83,3.55,1.38,6.27,1.63,8.14l0.2,1.23c0.13,0.65,0.23,1.31,0.3,1.98l0.05,0.48c0.08,0.47,0.13,0.93,0.13,1.4
			c0,0.28-0.02,0.57-0.08,0.85c-0.1,0.55-0.24,1-0.42,1.35c-0.18,0.35-0.49,0.65-0.93,0.9c-0.67,0.4-1.38,0.64-2.15,0.73
			L46.23,161.9z M35.01,133.66c0.2,0,0.3-0.08,0.3-0.25l-0.02-0.28c-0.42-2.9-1.04-5.61-1.85-8.11l-0.7-2.28
			c-0.2-0.58-0.38-1.18-0.55-1.78c-0.7,1.17-1.37,2.73-2,4.68s-1.19,3.8-1.68,5.53l-0.5,1.75c-0.05,0.12-0.08,0.21-0.08,0.28
			c0,0.13,0.12,0.2,0.35,0.2c2.22,0,4.41,0.08,6.56,0.25h0.17V133.66z"/>
		<path class="st1" d="M71.76,160.52c-1.08,0-2.07-0.23-2.95-0.68c-0.6-0.3-1.01-0.85-1.23-1.65c-1.04-3.97-1.55-10.63-1.55-19.98
			c0-4.74,0.15-9.43,0.46-14.07c0.31-4.64,0.76-8.54,1.35-11.69c0.59-3.15,1.31-4.99,2.17-5.51c2.87-1.4,5.73-2.1,8.59-2.1
			c0.53,0,1.07,0.02,1.6,0.08c5.69,0.48,10.09,2.91,13.19,7.28c2.34,3.37,3.5,6.84,3.5,10.41c0,2.84-0.72,5.72-2.15,8.64
			c-2.55,5.06-6.56,8.44-12.02,10.14l-0.18,0.05c-0.2,0.03-0.39,0.12-0.58,0.25c0.15,0.2,0.22,0.49,0.22,0.86
			c0,0.38,1.57,2.29,4.71,5.75c2.87,3.2,4.63,5.11,5.28,5.71c1.17,1.13,1.75,2.2,1.75,3.2c0,0.68-0.23,1.27-0.7,1.75
			c-0.47,0.48-1.03,0.85-1.69,1.11s-1.29,0.39-1.89,0.39c-0.63,0-1.13-0.15-1.48-0.45c-0.35-0.3-0.71-0.6-1.08-0.9
			c-0.8-0.67-1.55-1.38-2.25-2.13c-0.6-0.63-1.21-1.25-1.83-1.85c-0.9-0.93-1.76-1.91-2.58-2.93c-0.87-1.02-1.5-1.82-1.9-2.4
			c-0.33-0.47-0.68-0.93-1.05-1.38c-0.17-0.2-0.33-0.42-0.48-0.65c-0.22-0.4-0.52-0.74-0.9-1.03c0.03,0.58,0.05,1.2,0.05,1.85v0.4
			c0,0.92,0.05,1.87,0.16,2.85c0.11,0.98,0.4,1.86,0.89,2.63c0.22,0.33,0.33,0.72,0.33,1.15c0,0.68-0.25,1.41-0.75,2.17
			s-1.19,1.4-2.07,1.93C73.85,160.26,72.86,160.52,71.76,160.52z M76.99,136.41c2.42,0,4.63-0.55,6.63-1.65
			c2-1.1,3.65-2.59,4.94-4.48s2.07-4.03,2.34-6.43c0.05-0.42,0.08-0.83,0.08-1.23c0-2.54-0.74-4.84-2.23-6.91
			c-2.4-3.34-5.92-5.01-10.56-5.01c-0.25,0-0.38,0.09-0.38,0.28c0,0.37-0.06,0.72-0.18,1.05c-0.17,0.58-0.36,3.71-0.58,9.39
			c-0.17,5.42-0.43,10.22-0.8,14.39c0,0.27,0.05,0.43,0.16,0.5S76.73,136.41,76.99,136.41z"/>
		<path class="st1" d="M126.18,162.6c-2.05,0-4.02-0.34-5.91-1.03c-4.12-1.45-6.87-4.45-8.24-8.99c-0.27-0.83-0.4-1.56-0.4-2.18
			c0-0.28,0.02-0.57,0.08-0.85c0.3-1.5,1.09-2.65,2.38-3.46c0.78-0.45,1.55-0.68,2.3-0.68c0.87,0,1.72,0.23,2.55,0.68
			c1,0.45,1.62,1.25,1.85,2.4v0.08c0.07,0.28,0.1,0.56,0.1,0.83l-0.08,0.85c0,0.82,0.32,1.54,0.96,2.15
			c0.64,0.62,1.46,1.1,2.45,1.44s2.04,0.51,3.14,0.51c1.33,0,2.59-0.3,3.78-0.9c1.18-0.6,2.02-1.57,2.5-2.9
			c0.03-0.12,0.05-0.23,0.05-0.35c0-1.15-1.67-2.75-5.01-4.81l-1.9-1.2c-2.05-1.23-3.93-2.46-5.63-3.67s-3.17-2.55-4.42-4.02
			s-2.21-3.21-2.89-5.22s-1.03-4.46-1.03-7.35c0-3.62,1.15-7.02,3.46-10.19c2.19-3,4.86-5.25,8.04-6.73c2-0.85,4.15-1.34,6.43-1.48
			c2.45,0,4.61,0.65,6.46,1.95s3.11,3.04,3.78,5.21c0.4,1.2,0.6,2.96,0.6,5.28c0,2.87-0.46,4.69-1.38,5.46
			c-0.72,0.53-1.61,0.8-2.68,0.8c-0.92-0.03-1.77-0.33-2.55-0.88c-1.35-0.93-2.03-2.25-2.03-3.96l0.08-1.88c0-2.4-0.59-3.6-1.78-3.6
			c-0.65,0-1.54,0.39-2.65,1.18c-0.77,0.57-1.49,1.29-2.18,2.18c-0.68,0.88-1.25,1.9-1.69,3.05s-0.66,2.38-0.66,3.68
			c0,4.49,2.85,8.49,8.56,11.99c2.24,1.25,4.38,2.65,6.43,4.18c3.17,3.1,4.76,6.23,4.76,9.39c0,1.85-0.51,3.57-1.53,5.16
			c-1.02,1.58-2.37,2.97-4.07,4.14c-1.69,1.18-3.59,2.09-5.68,2.74C130.46,162.27,128.33,162.6,126.18,162.6z"/>
		<path class="st1" d="M178.17,162.42c-1.37,0-2.75-0.15-4.16-0.45c-3.67-0.85-6.72-2.57-9.15-5.14c-2.43-2.58-4.25-5.71-5.46-9.4
			s-1.82-7.57-1.82-11.64c0-4.21,0.64-8.35,1.92-12.44c1.28-4.09,3.18-7.7,5.71-10.84c2.53-3.14,5.68-5.46,9.45-6.96
			c1.44-0.55,3.06-0.83,4.88-0.83c0.67,0,1.34,0.03,2.03,0.1c4.34,0.42,7.9,1.87,10.69,4.36c2.79,2.49,4.85,5.64,6.18,9.46
			c1.33,3.82,2,7.87,2,12.14c0,4.36-0.65,8.64-1.95,12.87c-1.3,4.22-3.19,7.91-5.67,11.08c-2.48,3.16-5.49,5.41-9.05,6.75
			C181.95,162.11,180.08,162.42,178.17,162.42z M178.35,156.32c1.67,0,3.55-0.68,5.66-2.05c2.19-1.89,3.82-4.77,4.89-8.66
			c1.08-3.89,1.61-8.03,1.61-12.42c0-3.44-0.33-6.75-0.98-9.95s-1.62-5.91-2.9-8.15s-2.88-3.7-4.78-4.38
			c-0.45-0.08-0.88-0.13-1.3-0.13c-1.54,0-2.93,0.48-4.18,1.45c-1.25,0.97-2.35,2.29-3.3,3.97s-1.75,3.59-2.39,5.75
			c-0.64,2.15-1.13,4.45-1.45,6.88c-0.33,2.44-0.49,4.87-0.49,7.31c0,5.64,0.79,10.36,2.38,14.14
			C172.83,154.24,175.25,156.32,178.35,156.32z"/>
		<path class="st1" d="M223.73,161.8c-1.35,0-2.45-0.32-3.3-0.95c-0.85-0.63-1.42-1.61-1.7-2.93c-0.35-1.77-0.65-5.09-0.91-9.98
			c-0.26-4.88-0.39-10.09-0.39-15.63c0-3.87,0.09-7.58,0.26-11.13c0.17-3.55,0.47-6.51,0.88-8.9s0.96-3.86,1.64-4.41
			c0.28-0.2,0.57-0.42,0.85-0.65c0.27-0.23,0.54-0.45,0.83-0.65c0.27-0.22,0.55-0.35,0.85-0.4c0.95-0.15,1.89-0.34,2.83-0.58
			c0.37-0.1,0.7-0.15,1-0.15c0.65,0,1.16,0.2,1.53,0.61s0.72,0.95,1.05,1.61c0.07,0.13,0.1,0.27,0.1,0.4l-0.05,0.33
			c-0.23,1.67-0.48,5.75-0.75,12.25s-0.4,12.94-0.4,19.31c0,4.37,0.1,8.11,0.3,11.21s0.55,4.66,1.05,4.66l12.27-0.28
			c0.43,0,0.84,0.06,1.21,0.17c0.38,0.12,0.73,0.33,1.06,0.63c0.6,0.6,0.9,1.28,0.9,2.03c0,0.27-0.03,0.53-0.1,0.78
			c-0.27,1.08-0.94,1.78-2.03,2.08c-0.4,0.1-0.8,0.15-1.2,0.15l-8.81,0.18L223.73,161.8z"/>
	</g>
	<g>
		<path class="st1" d="M168.7,42.67c2.34-5.17,6.57-9.41,11.48-12.27c4.89-2.92,10.43-4.65,15.99-5.11
			c2.78-0.23,5.55-0.23,8.27,0.16c1.36,0.17,2.71,0.32,4.04,0.65l1.99,0.44c0.66,0.15,1.3,0.4,1.95,0.59
			c5.17,1.58,10.01,4.04,14.26,7.28c4.23,3.27,7.8,7.37,10.48,12c2.67,4.64,4.39,9.84,5.08,15.19c0.65,5.35,0.3,10.84-1.14,16.12
			c-1.39,5.3-3.93,10.3-7.25,14.8l-0.04,0.06c-1.65,2.23-4.79,2.71-7.02,1.06s-2.71-4.79-1.06-7.02c0.17-0.23,0.37-0.45,0.57-0.65
			c3.06-2.94,5.49-6.63,7-10.71c1.5-4.07,2.18-8.53,1.82-12.94c-0.58-8.84-5.29-17.35-12.43-22.71c-3.53-2.71-7.69-4.62-12.04-5.4
			c-0.54-0.1-1.08-0.23-1.63-0.27l-1.65-0.12c-0.55-0.02-1.09-0.12-1.64-0.09l-1.64,0.07c-2.17,0.04-4.33,0.44-6.38,0.98
			c-2.06,0.54-4.05,1.28-5.94,2.17c-1.88,0.91-3.66,1.98-5.35,3.16c-3.37,2.42-6.23,5.23-9.44,8.14l-0.27,0.24
			c-2.07,1.88-5.28,1.72-7.16-0.35C168.16,46.62,167.89,44.45,168.7,42.67z"/>
	</g>
	<g>
		<path class="st1" d="M163.6,12.79c1.95,1.74,3.8,3.52,5.57,5.36c0.89,0.92,1.75,1.85,2.61,2.79c0.86,0.95,1.67,1.88,2.54,2.91
			c1.25,1.49,1.05,3.7-0.43,4.95c-1.27,1.07-3.08,1.08-4.36,0.13l-0.11-0.08c-0.89-0.66-1.88-1.38-2.85-2.04
			c-0.97-0.67-1.96-1.33-2.95-1.97c-1.98-1.28-4-2.47-6.02-3.57c-2.54-1.38-3.49-4.55-2.11-7.09s4.55-3.49,7.09-2.11
			c0.36,0.19,0.68,0.42,0.97,0.68L163.6,12.79z"/>
	</g>
	<g>
		<path class="st1" d="M250.39,20.3c-1.68,1.97-3.42,3.85-5.21,5.65c-0.89,0.9-1.8,1.79-2.73,2.65c-0.93,0.88-1.84,1.7-2.85,2.59
			c-1.46,1.28-3.68,1.13-4.95-0.33c-1.13-1.29-1.14-3.18-0.11-4.49l0.07-0.09c0.68-0.86,1.43-1.84,2.12-2.78
			c0.7-0.95,1.38-1.92,2.05-2.89c1.33-1.94,2.59-3.92,3.74-5.92c1.34-2.32,4.31-3.11,6.63-1.77s3.11,4.31,1.77,6.63
			c-0.15,0.25-0.31,0.48-0.49,0.7L250.39,20.3z"/>
	</g>
	<g>
		<path class="st1" d="M262.57,93.32c-2.5-0.73-4.92-1.55-7.31-2.46c-1.19-0.45-2.37-0.92-3.54-1.41c-1.18-0.49-2.31-0.98-3.53-1.55
			c-1.76-0.81-2.53-2.9-1.72-4.66c0.7-1.53,2.37-2.31,3.95-1.96l0.12,0.03c1.08,0.24,2.28,0.49,3.43,0.7
			c1.16,0.22,2.33,0.42,3.49,0.59c2.33,0.36,4.66,0.63,6.95,0.8c2.79,0.21,4.88,2.65,4.67,5.44s-2.65,4.88-5.44,4.67
			c-0.35-0.03-0.69-0.09-1.02-0.18L262.57,93.32z"/>
	</g>
	<g>
		<path class="st1" d="M39.93,69.03c0.8-3.22,1.76-6.28,2.77-9.38c1.01-3.09,2.11-6.16,3.34-9.18c1.19-3.04,2.5-6.05,3.92-9.02
			c0.73-1.48,1.44-2.97,2.23-4.42c0.75-1.48,1.53-2.95,2.32-4.43c0.76-1.5,1.64-2.94,2.53-4.37c0.84-1.48,1.91-2.75,3.11-4.05
			c0.61-0.65,1.25-1.3,1.97-1.97c0.73-0.67,1.53-1.36,2.71-2.08c0.58-0.35,1.31-0.73,2.26-1c0.94-0.28,2.21-0.41,3.4-0.15
			c1.2,0.24,2.16,0.76,2.83,1.25c0.69,0.5,1.14,0.96,1.54,1.38c0.78,0.85,1.29,1.57,1.79,2.25c0.47,0.65,0.98,1.36,1.45,2.04
			l2.7,3.99c1.75,2.59,3.52,5.06,5.47,7.33c1.95,2.27,4.09,4.33,6.45,6.09c2.37,1.74,4.96,3.19,7.73,4.22
			c2.77,1.01,5.7,1.71,8.7,1.94c2.93,0.25,6.22,0.2,9.39,0.2c3.19-0.02,6.38-0.01,9.57-0.12l4.78-0.14l4.78-0.24
			c3.18-0.15,6.37-0.41,9.54-0.7c1.59-0.17,3.17-0.3,4.74-0.52c1.55-0.2,3.2-0.42,4.61-0.7c2.25-0.46,4.44,0.99,4.9,3.24
			c0.46,2.25-0.99,4.44-3.24,4.9c-0.34,0.07-0.69,0.1-1.02,0.08h-0.03l-9.8-0.51c-3.22-0.12-6.42-0.28-9.62-0.34l-4.8-0.12
			l-4.8-0.05c-3.2-0.07-6.4-0.03-9.6-0.03c-1.6,0.01-3.2-0.01-4.8,0.02c-1.56,0.02-3.29,0.06-4.97-0.06
			c-3.37-0.2-6.77-0.74-10.05-1.75c-6.61-1.96-12.63-5.82-17.57-10.49c-2.48-2.33-4.73-4.84-6.84-7.34l-3.07-3.66
			c-0.5-0.6-0.98-1.13-1.51-1.73c-0.5-0.57-1-1.1-1.34-1.38c-0.16-0.14-0.3-0.22-0.27-0.17c0.02,0.03,0.24,0.2,0.65,0.3
			c0.41,0.1,0.86,0.05,1.04,0.01c0.19-0.04,0.2-0.06,0.11,0.03c-0.17,0.14-0.58,0.52-0.98,0.97c-0.41,0.46-0.85,0.99-1.29,1.54
			l-1.36,1.73c-0.48,0.58-1.01,1.14-1.51,1.7c-1,1.14-2.08,2.22-3.06,3.41l-1.5,1.76l-1.39,1.85c-0.94,1.23-1.77,2.54-2.65,3.82
			c-1.71,2.6-3.34,5.27-4.86,8.01c-3.03,5.47-5.75,11.25-7.91,17.08l-0.02,0.05c-0.35,0.95-1.4,1.43-2.35,1.08
			C40.19,70.86,39.71,69.92,39.93,69.03z"/>
	</g>
	<g>
		<path class="st1" d="M59.1,40.65c0,0,8.68-11.11,15.17-4.83s-0.55-9.36-0.88-9.47s-6.38-2.31-6.38-2.31l-6.16,7.92L59.1,40.65z"/>
	</g>
</g>
</svg>
